<?xml version="1.0" encoding="UTF-8" standalone="no"?>
<svg
   fill="#000000"
   viewBox="0 0 50 50"
   width="250px"
   height="250px"
   version="1.1"
   id="svg4"
   sodipodi:docname="disneyplus.svg"
   inkscape:version="1.1.2 (0a00cf5339, 2022-02-04)"
   xmlns:inkscape="http://www.inkscape.org/namespaces/inkscape"
   xmlns:sodipodi="http://sodipodi.sourceforge.net/DTD/sodipodi-0.dtd"
   xmlns="http://www.w3.org/2000/svg"
   xmlns:svg="http://www.w3.org/2000/svg">
  <defs
     id="defs8" />
  <sodipodi:namedview
     id="namedview6"
     pagecolor="#ffffff"
     bordercolor="#666666"
     borderopacity="1.0"
     inkscape:pageshadow="2"
     inkscape:pageopacity="0.0"
     inkscape:pagecheckerboard="0"
     showgrid="false"
     inkscape:zoom="2.4692169"
     inkscape:cx="73.505086"
     inkscape:cy="167.66449"
     inkscape:window-width="2560"
     inkscape:window-height="1357"
     inkscape:window-x="0"
     inkscape:window-y="0"
     inkscape:window-maximized="1"
     inkscape:current-layer="layer1" />
  <rect
     style="fill:#ffffff;fill-opacity:1;stroke-width:0.2"
     id="rect1141"
     width="36.793747"
     height="23.136745"
     x="6.87432"
     y="14.293073" />
  <g
     inkscape:groupmode="layer"
     id="layer1"
     inkscape:label="Icon">
    <path
       d="m 19.434826,25.175843 c 0,0 0.615053,-0.951915 1.690849,-1.37041 1.075795,-0.418495 0.729965,0.609312 0.15431,1.027807 -0.577843,0.418496 -1.154592,0.533419 -1.845159,0.342603 z m 0.575654,-1.714097 c -0.999186,0.190817 -1.306713,0.723152 -1.191801,1.294517 0.15431,-0.456442 1.191801,-1.293433 1.191801,-1.294517 z m 15.605054,4.60887 c -0.423533,0.380548 -1.26841,1.752041 -1.26841,1.752041 0,0 1.306714,-0.15287 1.691943,-1.180676 0.38304,-1.028891 -0.0011,-0.951914 -0.423533,-0.571365 z M 8.9417179,29.098422 c 0.729965,0.647258 2.0366771,1.180677 2.0366771,1.180677 l 0.07661,-2.436162 c -0.575655,0 -1.9206701,0.342602 -2.2675951,0.418495 -0.345831,0.07481 -0.576749,0.189732 0.15431,0.83699 z M 47.904554,11.93578 v 26.020431 c 0,5.380809 -4.419188,9.757662 -9.849602,9.757662 H 11.789346 c -5.4304131,0 -9.8496011,-4.376853 -9.8496011,-9.757662 V 11.93578 c 0,-5.3808079 4.419188,-9.7576609 9.8496011,-9.7576609 h 26.265606 c 5.430414,0 9.849602,4.376853 9.849602,9.7576609 z m -35.523138,9.686105 0.625997,0.241774 c 0.07989,0.0065 0.156499,-0.03144 0.199181,-0.09866 2.570746,-4.057018 7.204437,-6.782658 12.537449,-6.782658 6.345333,0 11.718839,3.851023 13.765367,9.224242 0.03173,0.0824 0.10944,0.137692 0.199181,0.137692 h 0.652263 c 0.0766,0 0.131327,-0.07698 0.106156,-0.148533 C 38.383272,18.343313 32.568723,14.11933 25.736383,14.11933 c -5.706203,0 -10.709801,2.953319 -13.441424,7.333425 -0.04487,0.06939 0.0044,0.161543 0.08646,0.169132 z m 2.593729,2.069708 c -3.075264,-1.485332 -4.15106,-1.676148 -6.5346621,-1.523278 -2.38251,0.15287 -2.38251,1.332462 -1.806855,1.371493 0.340358,0.02276 0.532973,0.04771 0.634752,0.05963 0.08536,0.0098 0.0974,-0.01192 0.125856,-0.04987 0.02408,-0.03252 0.03502,-0.08131 0.04706,-0.110586 0.02079,-0.05313 -0.0033,-0.107334 -0.05144,-0.127934 -0.04925,-0.02168 -0.60192,-0.265625 -0.60192,-0.265625 0,0 2.998655,-0.761098 6.7261821,1.027807 3.727527,1.788905 4.689505,4.112312 3.652013,5.255043 -1.037491,1.14273 -2.844346,1.714095 -5.073639,1.218623 -0.0383,-1.561226 0.0383,-2.703956 0.0383,-2.703956 0,0 2.076077,-0.0759 2.614521,0.304656 0.459649,0.325255 0.190427,0.538839 -0.112723,0.665689 -0.05143,0.02168 -0.05691,0.116008 -0.0098,0.143113 0.430099,0.236351 0.772646,0.291645 1.083456,-0.08457 0.345831,-0.418495 0.729965,-2.208485 -3.497703,-2.094645 -0.07661,-0.723151 0.15431,-1.218623 -0.460742,-1.941775 -0.615054,-0.726403 -0.615054,1.977553 -0.615054,1.977553 0,0 -1.5759341,0.227679 -2.8826481,1.142731 -1.306714,0.913967 2.6900341,3.122452 2.6900341,3.122452 0,0 0.07661,0.989859 0.653357,1.104783 0.576749,0.113839 0.538445,-0.72315 0.538445,-0.72315 0,0 3.458305,0.989859 5.766395,-1.027808 2.304807,-2.019835 0.152122,-5.256126 -2.923143,-6.740376 z m 4.190459,2.169454 c 0.615052,0.267793 1.80576,0.07698 2.575123,-0.685204 0.76827,-0.761098 1.115194,-2.170538 -0.229823,-2.094646 0,0 -0.500142,-0.647257 -1.575937,-0.342602 -1.075795,0.304656 -2.420813,1.714096 -1.459929,2.62698 -0.0011,0.418495 0.114911,1.218623 0.690566,0.495472 z m 1.075795,4.836548 c 0,-0.571366 -0.0383,-2.855742 -0.116006,-3.313268 -0.07661,-0.456442 -0.499047,-0.838075 -0.729965,-0.380549 0,0 -0.192615,2.208483 -0.116006,3.578893 0.03939,0.57245 0.961977,0.685205 0.961977,0.114924 z m 2.113287,-3.008612 c 0.806573,-0.0759 1.384417,-0.114924 2.076077,-0.227679 0.691661,-0.11384 0.729965,-0.609312 0.19152,-0.723152 0,0 -2.114381,-0.456442 -3.536007,0.456442 -0.691661,0.456442 -0.500141,1.294517 -0.116006,1.332463 0.384134,0.03795 2.344205,0.114924 2.806042,0.418495 0.460743,0.304656 0.576749,0.533419 0.07661,0.838075 -0.500141,0.304656 -1.614241,0.456442 -2.076078,0.304656 -0.460742,-0.15287 -0.615052,-0.951915 0.229825,-0.533419 0.845971,0.418495 2.38251,-0.07589 1.345018,-0.418496 -1.037492,-0.342601 -1.882368,-0.265624 -2.420814,0.114924 -0.538445,0.380549 0.192615,1.180677 0.806574,1.446303 0.615052,0.265625 1.76855,0.342602 2.460211,-0.0759 0.691661,-0.418496 1.037492,-2.017668 -0.07661,-2.284377 -1.115194,-0.265625 -1.806855,-0.227679 -2.305902,-0.304656 -0.497951,-0.07698 -0.267033,-0.266709 0.53954,-0.343687 z m 5.613179,-1.292348 c -1.191802,-1.371494 -0.577844,0.569196 -0.500141,0.911799 0.07661,0.342602 0.384134,1.637118 0.384134,2.170537 -0.384134,-0.571366 -0.999186,-1.714096 -1.537632,-2.24643 -0.538445,-0.533419 -0.691661,-0.07589 -0.691661,-0.07589 0,0 -0.538445,1.941774 -0.384135,3.198344 0.154312,1.256571 0.806574,0.380549 0.845972,0 0.0383,-0.380549 0.116006,-1.637118 0.116006,-1.979721 0.345831,0.761097 0.884276,1.637119 1.306715,2.056698 0.422438,0.418496 0.845971,0.15287 0.999186,-0.227679 0.153217,-0.380549 0.653358,-2.437246 -0.538444,-3.807655 z m 4.111662,3.880296 c 0.422438,-0.342602 -0.07771,-0.684121 -0.500141,-0.64509 -0.422438,0.03795 -1.652544,0.227679 -1.652544,0.227679 l 0.268128,-0.799045 c 0,0 0.806573,0.03795 1.45993,-0.03795 0.653356,-0.07589 0.192614,-0.799045 -0.0383,-0.799045 -0.229824,0 -1.075796,0 -1.075796,0 l 0.192614,-0.533418 c 0,0 1.421627,-0.03795 1.882369,-0.114924 0.460743,-0.07589 -0.268128,-0.838075 -0.806573,-0.876021 -0.538445,-0.03795 -1.691943,0.114923 -2.460212,0.265625 -0.768268,0.15287 0.500141,0.723151 0.500141,0.723151 0,0 -0.116006,0.380549 -0.268128,0.647259 -0.460743,0.0759 -0.422438,0.342601 -0.268128,0.685204 -0.307527,0.799044 -0.460743,1.789989 0.422438,2.094645 0.884276,0.303571 1.921767,-0.496557 2.344206,-0.838075 z m 4.6906,-2.206315 c 0.114911,-1.600257 -1.346114,-1.256571 -1.922862,-0.685205 -0.576749,0.571365 -1.575936,2.056697 -1.575936,2.056697 0.116006,-0.989859 0.384134,-1.256569 0.999187,-2.24643 0.525313,-0.845663 -0.307526,-0.533419 -0.307526,-0.533419 0,0 -1.960071,1.63712 -1.115195,3.503001 -0.576748,1.408356 -1.499328,3.426023 -0.15431,4.492861 0.345831,0.227679 0.229824,-0.456442 0.345831,-0.838075 0.116006,-0.380549 0.500141,-2.322323 0.884275,-2.855742 0.924769,-0.07589 2.577313,-0.418495 2.846536,-2.893688 z m 6.761204,-0.104082 c 0.0033,-0.0683 -0.05472,-0.124681 -0.125856,-0.124681 h -2.313563 c -0.04815,-0.757846 -0.140083,-1.566647 -0.30862,-2.326661 -0.0098,-0.04228 -0.04487,-0.0759 -0.08865,-0.07914 -0.314092,0 -0.362246,0.0021 -0.657734,0.0021 -0.08536,0.0021 -0.143366,0.08131 -0.121478,0.161543 0.09631,0.350192 0.23639,1.24356 0.282355,2.24101 h -2.197556 c -0.06785,0 -0.124761,0.0553 -0.128045,0.121428 l -0.058,0.576787 c -0.0044,0.09215 0.07551,0.168048 0.168538,0.15829 l 2.241331,0.0076 c 0.01313,0.817476 0.0197,1.308611 -0.05034,2.172706 -0.0088,0.05746 0.03612,0.10625 0.09522,0.109503 0.352397,0.02168 0.575654,0.04879 0.708077,0.05095 0.05363,0.0011 0.0974,-0.03903 0.101782,-0.09216 0.02079,-0.277551 0.07442,-1.149236 0.04816,-2.237757 l 2.276353,0.0076 c 0.07114,0 0.128044,-0.05746 0.128044,-0.127933 v -0.621238 z"
       id="path2"
       style="fill:#1e2161;fill-opacity:1;stroke-width:1.08928" />
  </g>
</svg>
