<?xml version="1.0" standalone="no"?>
<!DOCTYPE svg PUBLIC "-//W3C//DTD SVG 20010904//EN"
 "http://www.w3.org/TR/2001/REC-SVG-20010904/DTD/svg10.dtd">
<svg version="1.0" xmlns="http://www.w3.org/2000/svg"
 width="690.000000pt" height="362.000000pt" viewBox="0 0 690.000000 362.000000"
 preserveAspectRatio="xMidYMid meet">

<g transform="translate(0.000000,362.000000) scale(0.100000,-0.100000)"
fill="#000000" stroke="none">
<path d="M2725 3030 c-97 -11 -149 -26 -228 -67 -121 -64 -213 -184 -255 -335
-15 -57 -17 -131 -17 -818 0 -700 1 -760 18 -819 60 -210 214 -355 420 -393
104 -19 1470 -19 1574 0 206 38 360 183 420 393 17 59 18 119 18 819 0 690 -2
760 -18 819 -54 197 -193 336 -389 388 -55 14 -148 17 -768 19 -388 1 -736 -2
-775 -6z m650 -1041 c14 -44 25 -82 25 -85 0 -3 -16 12 -36 33 -20 21 -41 37
-46 35 -5 -1 -7 1 -5 5 3 5 10 27 16 51 7 23 14 42 16 42 2 0 16 -36 30 -81z
m-704 20 c23 -12 70 -69 65 -78 -3 -4 -23 -13 -44 -20 -37 -12 -41 -12 -61 8
-25 25 -59 24 -74 0 -17 -28 0 -47 73 -84 80 -40 110 -78 110 -138 0 -53 -26
-93 -75 -117 -51 -25 -98 -25 -151 -1 -41 19 -84 63 -84 87 0 7 18 19 40 25
38 12 42 11 68 -14 32 -30 63 -34 86 -11 32 32 16 59 -58 96 -76 37 -102 61
-116 104 -21 64 23 137 92 154 35 9 103 3 129 -11z m409 -34 l0 -45 -50 0 -50
0 0 -180 0 -180 -50 0 -50 0 -2 178 -3 177 -47 3 -48 3 0 45 0 44 150 0 150 0
0 -45z m844 31 c41 -17 74 -58 82 -102 9 -50 -27 -118 -75 -141 l-38 -18 55
-75 c30 -41 59 -81 65 -87 7 -10 -4 -13 -50 -13 l-59 0 -60 87 -59 86 -3 -86
-3 -87 -49 0 -50 0 0 225 0 225 105 0 c67 0 118 -5 139 -14z m406 -106 l0 -70
70 0 70 0 0 -35 0 -35 -70 0 -69 0 -3 -72 -3 -73 -37 -3 -38 -3 0 75 0 76 -70
0 -70 0 0 35 0 35 70 0 70 0 0 70 0 70 40 0 40 0 0 -70z m-710 -35 c0 -2 -28
-23 -62 -46 -35 -23 -60 -39 -56 -35 9 10 -20 44 -57 67 l-30 19 103 0 c56 0
102 -2 102 -5z"/>
<path d="M3782 1878 l3 -53 45 4 c54 3 70 15 70 50 0 39 -17 51 -73 51 l-48 0
3 -52z"/>
</g>
</svg>
