<svg version="1.1" id="Layer_1" xmlns="http://www.w3.org/2000/svg" xmlns:xlink="http://www.w3.org/1999/xlink" x="0px" y="0px"
	 width="100%" viewBox="0 0 690 362" enable-background="new 0 0 690 362" xml:space="preserve">
<path fill="#000000" opacity="1.000000" stroke="none" 
	d="
M495.000000,363.000000 
	C330.039062,363.000000 165.578125,363.000000 1.058594,363.000000 
	C1.058594,242.401077 1.058594,121.802116 1.058594,1.101576 
	C230.877625,1.101576 460.755310,1.101576 690.816528,1.101576 
	C690.816528,121.666435 690.816528,242.333191 690.816528,363.000000 
	C625.802063,363.000000 560.651001,363.000000 495.000000,363.000000 
M243.968033,70.966034 
	C243.968033,70.966034 243.939972,70.974358 243.500488,71.194695 
	C243.234100,71.400978 243.037903,71.660362 242.366837,72.287056 
	C241.241608,73.514587 240.116379,74.742119 238.399551,76.289978 
	C226.428009,87.046936 223.320404,101.568100 223.148987,116.436523 
	C222.641998,160.414993 222.952271,204.403015 223.003036,248.387238 
	C223.004837,249.946716 223.643738,251.505463 224.001556,253.949982 
	C223.922531,276.569702 239.244202,296.367859 261.245392,301.865753 
	C267.381073,303.399017 273.423615,306.261292 280.604858,304.588745 
	C281.749725,304.729065 282.894623,304.991974 284.039490,304.992004 
	C326.669037,304.992584 369.298553,304.968903 412.671967,304.954712 
	C421.820129,302.953949 431.836731,302.683044 439.945618,298.612152 
	C460.281616,288.402893 468.691986,270.224243 468.971436,247.008896 
	C468.967438,209.683609 468.963409,172.358337 468.992249,134.092087 
	C469.002472,126.651375 469.464294,119.177513 468.920929,111.777451 
	C468.025940,99.588913 464.676147,88.162262 455.689362,78.358826 
	C449.836945,73.831795 443.984528,69.304764 437.615601,64.259003 
	C429.598724,61.882977 421.729828,58.654663 412.503693,59.353790 
	C411.350769,59.241173 410.197876,59.030266 409.044952,59.030128 
	C365.384552,59.024929 321.724152,59.039112 277.317871,59.030544 
	C274.056854,59.385418 270.655304,59.269814 267.564026,60.193012 
	C261.111572,62.119995 253.899261,62.418587 248.307602,68.046791 
	C247.207947,68.689751 246.108276,69.332703 244.535675,70.138939 
	C244.232254,70.323364 244.044571,70.589417 243.968033,70.966034 
z"/>
<path fill="#130F1F" opacity="1.000000" stroke="none" 
	d="
M280.013977,304.000000 
	C273.423615,306.261292 267.381073,303.399017 261.245392,301.865753 
	C239.244202,296.367859 223.922531,276.569702 224.004745,253.031860 
	C224.006866,239.743500 224.005798,227.373260 224.340790,215.075287 
	C225.567886,216.288452 226.240585,217.757736 227.384521,218.518250 
	C236.401611,224.513046 245.018112,231.394531 254.699432,236.041611 
	C270.471039,243.612015 286.340546,251.388428 304.209961,253.319809 
	C316.178284,254.613403 328.052704,256.948334 340.041656,257.819611 
	C348.386444,258.426056 356.861969,257.471161 365.265686,256.983307 
	C386.844177,255.730682 407.157501,249.387985 426.852478,240.963882 
	C433.516937,238.113297 439.843170,234.407471 446.129852,230.758087 
	C451.522675,227.627579 456.716705,224.132477 461.840820,220.571472 
	C464.095276,219.004700 465.958130,216.874451 467.999939,215.468704 
	C468.002747,223.709076 467.921814,231.482162 468.048920,239.251816 
	C468.096313,242.148438 468.629791,245.037079 468.941620,247.929367 
	C468.691986,270.224243 460.281616,288.402893 439.945618,298.612152 
	C431.836731,302.683044 421.820129,302.953949 411.994507,304.683228 
	C409.339630,304.274323 407.362213,304.018066 405.384705,304.016968 
	C363.594452,303.994049 321.804230,303.999817 280.013977,304.000000 
z"/>
<path fill="#1D172F" opacity="1.000000" stroke="none" 
	d="
M413.067383,59.996040 
	C421.729828,58.654663 429.598724,61.882977 437.881470,64.922516 
	C438.588287,69.086929 440.106812,72.874229 439.266785,76.034668 
	C436.814026,85.263062 434.149506,94.570763 430.232605,103.244331 
	C423.461517,118.238190 412.341370,130.000641 398.447266,138.540680 
	C389.915955,143.784470 380.562866,148.232895 370.996429,151.085663 
	C362.816284,153.525070 353.796753,153.099045 345.169250,154.116882 
	C342.214355,154.465469 339.322571,155.348831 336.252686,155.790680 
	C335.539429,155.732864 334.975494,155.872253 333.988770,156.000412 
	C311.158661,151.080566 290.842957,142.783142 275.059662,124.849884 
	C260.790222,108.636696 251.486786,90.797783 250.468719,69.005119 
	C250.451706,68.641006 249.476822,68.321648 248.948944,67.981400 
	C253.899261,62.418587 261.111572,62.119995 267.564026,60.193012 
	C270.655304,59.269814 274.056854,59.385418 277.985077,59.324966 
	C283.765106,59.755024 288.877960,59.890656 293.902710,60.376801 
	C287.143524,64.486549 286.934937,64.908585 289.214966,73.106552 
	C293.732727,89.350410 302.866577,101.774651 317.926575,110.137276 
	C334.711853,119.457909 351.681793,120.295242 368.988770,112.901680 
	C387.961548,104.796486 398.542114,89.422523 403.715607,70.003593 
	C404.652527,66.486832 405.001953,62.438034 399.457672,61.783371 
	C398.913330,61.719093 398.489227,60.636574 398.474884,60.018440 
	C403.649445,60.005482 408.358398,60.000763 413.067383,59.996040 
z"/>
<path fill="#1A1529" opacity="1.000000" stroke="none" 
	d="
M456.023346,78.922684 
	C464.676147,88.162262 468.025940,99.588913 468.920929,111.777451 
	C469.464294,119.177513 469.002472,126.651375 468.712341,134.877106 
	C468.287872,144.441833 468.143311,153.221527 467.657654,162.072327 
	C466.567291,163.176163 465.731476,164.157532 465.082794,165.250031 
	C461.025055,172.084183 456.339478,178.168182 447.516968,179.973160 
	C443.480927,179.930862 439.900085,180.038818 436.338379,179.826431 
	C435.507843,179.776917 434.742188,178.639130 434.234131,177.955673 
	C434.829376,177.592865 435.137115,177.276459 435.444855,176.960052 
	C434.949463,176.639465 434.454071,176.318909 433.842041,175.561722 
	C433.725403,172.039749 433.725403,168.954422 433.725403,165.903107 
	C430.682190,165.903107 428.418152,165.903107 425.766724,165.903107 
	C425.766724,170.638306 425.766724,175.078735 425.766724,179.864120 
	C420.920807,179.864120 416.457520,179.864120 412.122498,179.494797 
	C414.764587,178.749863 417.284515,178.037277 419.790863,178.082108 
	C423.080536,178.140976 424.341827,176.863159 424.012604,173.686569 
	C423.838165,172.003693 423.801025,170.306564 423.688873,168.393326 
	C416.430969,173.502197 410.229309,179.096939 401.261719,178.323486 
	C402.369110,169.867676 399.536072,164.379242 393.092651,161.577835 
	C408.593079,154.828217 421.558533,145.046692 432.154602,132.253876 
	C440.835144,121.773773 448.288635,110.420227 452.281616,97.266449 
	C454.086395,91.321106 454.809509,85.047409 456.023346,78.922684 
z"/>
<path fill="#1A1529" opacity="1.000000" stroke="none" 
	d="
M224.004715,215.003036 
	C224.005798,227.373260 224.006866,239.743500 223.996826,252.589142 
	C223.643738,251.505463 223.004837,249.946716 223.003036,248.387238 
	C222.952271,204.403015 222.641998,160.414993 223.148987,116.436523 
	C223.320404,101.568100 226.428009,87.046936 238.685394,76.533600 
	C239.244400,80.115891 239.187119,83.525764 239.886826,86.772499 
	C240.541656,89.810921 242.004562,92.674286 243.101685,95.618462 
	C245.482483,102.007401 247.149307,108.784798 250.381607,114.708420 
	C257.028137,126.889000 267.524811,135.978088 277.357941,145.495743 
	C280.000946,148.053925 283.253326,150.152618 286.547089,151.832703 
	C293.256836,155.255188 299.578766,159.844330 307.597748,159.941086 
	C307.735931,159.942734 307.867310,160.505875 307.537720,160.877319 
	C297.691986,160.947632 288.310394,160.947632 278.891266,160.947632 
	C278.891266,164.414673 278.891266,167.223007 278.566833,169.952148 
	C276.864929,169.248322 275.487457,168.623703 273.857574,167.771820 
	C269.597656,161.263840 263.640259,159.716187 256.722107,160.717880 
	C250.167221,161.666946 246.526627,165.747910 244.747986,172.045883 
	C244.158081,172.409607 243.853760,172.726151 243.549438,173.042694 
	C244.041992,173.362137 244.534546,173.681595 245.153412,174.367493 
	C245.144348,175.490753 245.008987,176.247543 244.470490,177.002441 
	C241.463776,175.918671 238.298370,175.436569 236.371841,173.631912 
	C232.178970,169.704330 228.617691,165.102539 224.004715,159.877441 
	C224.004715,178.762070 224.004715,196.882553 224.004715,215.003036 
z"/>
<path fill="#1B152B" opacity="1.000000" stroke="none" 
	d="
M455.856354,78.640755 
	C454.809509,85.047409 454.086395,91.321106 452.281616,97.266449 
	C448.288635,110.420227 440.835144,121.773773 432.154602,132.253876 
	C421.558533,145.046692 408.593079,154.828217 392.681824,161.467712 
	C384.595306,161.698090 377.011536,161.698090 368.922546,161.698090 
	C368.922546,165.478653 368.922546,169.239609 368.565796,173.009155 
	C367.093719,173.749649 365.978424,174.481583 364.403625,175.197708 
	C358.668182,175.180267 353.380493,174.962494 348.119995,175.246918 
	C344.075348,175.465607 342.059784,173.665558 340.963776,170.038574 
	C339.539734,165.325821 337.931122,160.668854 336.401947,155.987869 
	C339.322571,155.348831 342.214355,154.465469 345.169250,154.116882 
	C353.796753,153.099045 362.816284,153.525070 370.996429,151.085663 
	C380.562866,148.232895 389.915955,143.784470 398.447266,138.540680 
	C412.341370,130.000641 423.461517,118.238190 430.232605,103.244331 
	C434.149506,94.570763 436.814026,85.263062 439.266785,76.034668 
	C440.106812,72.874229 438.588287,69.086929 438.139709,65.181877 
	C443.984528,69.304764 449.836945,73.831795 455.856354,78.640755 
z"/>
<path fill="#1B152B" opacity="1.000000" stroke="none" 
	d="
M308.001831,160.807022 
	C307.867310,160.505875 307.735931,159.942734 307.597748,159.941086 
	C299.578766,159.844330 293.256836,155.255188 286.547089,151.832703 
	C283.253326,150.152618 280.000946,148.053925 277.357941,145.495743 
	C267.524811,135.978088 257.028137,126.889000 250.381607,114.708420 
	C247.149307,108.784798 245.482483,102.007401 243.101685,95.618462 
	C242.004562,92.674286 240.541656,89.810921 239.886826,86.772499 
	C239.187119,83.525764 239.244400,80.115891 238.981201,76.373444 
	C240.116379,74.742119 241.241608,73.514587 242.861938,72.020889 
	C243.633698,71.556091 243.828003,71.295975 243.939972,70.974358 
	C243.939972,70.974358 243.968033,70.966034 244.186676,70.843811 
	C244.674088,70.527695 244.875198,70.279053 245.008621,69.975662 
	C246.108276,69.332703 247.207947,68.689751 248.628265,68.014099 
	C249.476822,68.321648 250.451706,68.641006 250.468719,69.005119 
	C251.486786,90.797783 260.790222,108.636696 275.059662,124.849884 
	C290.842957,142.783142 311.158661,151.080566 333.921265,156.391052 
	C332.844543,161.189804 331.412537,165.586685 329.633789,170.184280 
	C329.347076,174.019363 327.865784,175.800323 323.952179,175.276138 
	C322.032349,175.018997 320.031158,175.369080 317.613953,175.344711 
	C313.653076,175.245071 310.144989,175.245071 305.327972,175.245071 
	C310.765381,179.379700 315.040771,182.630692 319.015747,186.109009 
	C317.658752,187.207626 316.315033,189.019058 315.591919,188.798218 
	C310.787384,187.331009 304.889954,188.128265 301.863678,182.578186 
	C301.426270,181.775955 300.082825,181.467712 299.065430,180.545898 
	C298.972168,176.912949 298.972168,173.664993 298.972168,169.911026 
	C302.602631,169.911026 305.656403,169.911026 309.331360,169.911026 
	C308.829559,166.474899 308.415710,163.640961 308.001831,160.807022 
z"/>
<path fill="#38314A" opacity="1.000000" stroke="none" 
	d="
M412.785522,59.674919 
	C408.358398,60.000763 403.649445,60.005482 398.005219,60.005806 
	C362.710236,60.009701 328.350525,60.017994 293.990784,60.026287 
	C288.877960,59.890656 283.765106,59.755024 278.358032,59.335045 
	C321.724152,59.039112 365.384552,59.024929 409.044952,59.030128 
	C410.197876,59.030266 411.350769,59.241173 412.785522,59.674919 
z"/>
<path fill="#211A35" opacity="1.000000" stroke="none" 
	d="
M280.309418,304.294373 
	C321.804230,303.999817 363.594452,303.994049 405.384705,304.016968 
	C407.362213,304.018066 409.339630,304.274323 411.622589,304.680115 
	C369.298553,304.968903 326.669037,304.992584 284.039490,304.992004 
	C282.894623,304.991974 281.749725,304.729065 280.309418,304.294373 
z"/>
<path fill="#1D172F" opacity="1.000000" stroke="none" 
	d="
M467.998779,162.001221 
	C468.143311,153.221527 468.287872,144.441833 468.695923,135.347595 
	C468.963409,172.358337 468.967438,209.683609 468.956543,247.469131 
	C468.629791,245.037079 468.096313,242.148438 468.048920,239.251816 
	C467.921814,231.482162 468.002747,223.709076 468.001709,215.000031 
	C468.001190,196.708878 468.000000,179.355057 467.998779,162.001221 
z"/>
<path fill="#1A1529" opacity="1.000000" stroke="none" 
	d="
M243.720230,71.084526 
	C243.828003,71.295975 243.633698,71.556091 243.134460,71.863785 
	C243.037903,71.660362 243.234100,71.400978 243.720230,71.084526 
z"/>
<path fill="#1A1529" opacity="1.000000" stroke="none" 
	d="
M244.772156,70.057297 
	C244.875198,70.279053 244.674088,70.527695 244.188950,70.829346 
	C244.044571,70.589417 244.232254,70.323364 244.772156,70.057297 
z"/>
<path fill="#161123" opacity="1.000000" stroke="none" 
	d="
M467.657684,162.072327 
	C468.000000,179.355057 468.001190,196.708878 468.000580,214.531372 
	C465.958130,216.874451 464.095276,219.004700 461.840820,220.571472 
	C456.716705,224.132477 451.522675,227.627579 446.129852,230.758087 
	C439.843170,234.407471 433.516937,238.113297 426.852478,240.963882 
	C407.157501,249.387985 386.844177,255.730682 365.265686,256.983307 
	C356.861969,257.471161 348.386444,258.426056 340.041656,257.819611 
	C328.052704,256.948334 316.178284,254.613403 304.209961,253.319809 
	C286.340546,251.388428 270.471039,243.612015 254.699432,236.041611 
	C245.018112,231.394531 236.401611,224.513046 227.384521,218.518250 
	C226.240585,217.757736 225.567886,216.288452 224.340790,215.075287 
	C224.004715,196.882553 224.004715,178.762070 224.004715,159.877441 
	C228.617691,165.102539 232.178970,169.704330 236.371841,173.631912 
	C238.298370,175.436569 241.463776,175.918671 244.644897,177.305664 
	C247.049133,179.672394 248.584229,182.145142 250.772400,183.697052 
	C253.882797,185.903000 257.404419,187.579224 260.879395,189.206131 
	C263.962006,190.649338 265.401733,193.108231 263.624023,195.770477 
	C261.667145,198.700958 257.963531,199.420532 255.607422,196.391495 
	C251.346024,190.912903 247.336258,193.990219 242.909775,195.595093 
	C251.183029,208.945618 262.992035,210.897339 273.111938,201.173859 
	C275.294922,203.533447 276.959625,206.321243 279.399994,207.491501 
	C293.690002,214.344086 308.807404,218.192032 324.565002,220.302994 
	C338.500671,222.169876 352.438751,223.375488 366.178528,220.784592 
	C379.622864,218.249405 392.934235,214.582794 405.935577,210.295578 
	C412.928406,207.989685 419.147980,203.338882 425.822235,200.085495 
	C428.414581,200.873962 430.901154,201.323074 433.988525,201.880707 
	C433.988525,196.269287 433.988525,191.879471 433.988525,186.986542 
	C438.952911,186.986542 443.484375,186.986542 447.979156,186.986542 
	C447.979156,184.303619 447.979156,182.155151 447.979156,180.006668 
	C456.339478,178.168182 461.025055,172.084183 465.082794,165.250031 
	C465.731476,164.157532 466.567291,163.176163 467.657684,162.072327 
z"/>
<path fill="#211A35" opacity="1.000000" stroke="none" 
	d="
M293.902710,60.376801 
	C328.350525,60.017994 362.710236,60.009701 397.539642,60.014046 
	C398.489227,60.636574 398.913330,61.719093 399.457672,61.783371 
	C405.001953,62.438034 404.652527,66.486832 403.715607,70.003593 
	C398.542114,89.422523 387.961548,104.796486 368.988770,112.901680 
	C351.681793,120.295242 334.711853,119.457909 317.926575,110.137276 
	C302.866577,101.774651 293.732727,89.350410 289.214966,73.106552 
	C286.934937,64.908585 287.143524,64.486549 293.902710,60.376801 
z"/>
<path fill="#EB6605" opacity="1.000000" stroke="none" 
	d="
M329.980530,169.983582 
	C331.412537,165.586685 332.844543,161.189804 334.344055,156.402283 
	C334.975494,155.872253 335.539429,155.732864 336.252686,155.790680 
	C337.931122,160.668854 339.539734,165.325821 340.963776,170.038574 
	C342.059784,173.665558 344.075348,175.465607 348.119995,175.246918 
	C353.380493,174.962494 358.668182,175.180267 364.238220,175.468231 
	C359.124451,179.753220 353.716644,183.751862 348.214111,187.365784 
	C345.084900,183.504242 342.270325,179.797211 338.946625,176.623276 
	C336.278015,174.074875 332.992371,172.172577 329.980530,169.983582 
z"/>
<path fill="#191326" opacity="1.000000" stroke="none" 
	d="
M425.716431,199.746155 
	C419.147980,203.338882 412.928406,207.989685 405.935577,210.295578 
	C392.934235,214.582794 379.622864,218.249405 366.178528,220.784592 
	C352.438751,223.375488 338.500671,222.169876 324.565002,220.302994 
	C308.807404,218.192032 293.690002,214.344086 279.399994,207.491501 
	C276.959625,206.321243 275.294922,203.533447 273.226227,200.839905 
	C277.184784,192.194290 275.332825,185.675781 267.635864,181.334808 
	C264.614410,179.630753 261.264709,178.498047 258.286133,176.731415 
	C254.531662,174.504593 254.818130,171.959213 259.005157,169.783112 
	C259.842651,169.857666 260.506561,169.656052 261.553528,169.486908 
	C263.460846,170.721817 264.985077,171.924240 267.469391,173.884079 
	C269.522278,172.064758 271.816132,170.031906 274.109955,167.999069 
	C275.487457,168.623703 276.864929,169.248322 278.920044,169.991043 
	C280.062927,170.180847 280.528229,170.252563 280.899719,170.635818 
	C278.065674,173.627319 279.202179,175.713364 282.105408,176.924561 
	C283.988464,177.710159 286.209198,177.686310 288.417175,178.472610 
	C288.694946,187.969254 288.834137,197.018448 289.066101,206.447220 
	C292.236145,208.362015 295.276459,209.348267 298.388611,205.954559 
	C298.877563,197.430725 299.018127,189.180801 299.158691,180.930878 
	C300.082825,181.467712 301.426270,181.775955 301.863678,182.578186 
	C304.889954,188.128265 310.787384,187.331009 315.591919,188.798218 
	C316.315033,189.019058 317.658752,187.207626 319.302429,186.205261 
	C321.426331,186.997467 322.963196,187.920731 324.896362,188.884079 
	C326.840698,189.883163 328.388733,190.842163 329.772339,192.097122 
	C325.261780,197.804932 317.738190,201.035522 317.144653,210.122253 
	C323.952301,205.529602 329.988586,201.457306 336.239197,197.613342 
	C342.155487,201.955215 347.857544,206.068771 353.828583,210.376389 
	C352.113861,204.363968 350.497375,198.696060 349.292725,192.964294 
	C356.110779,191.267227 362.517059,189.633987 369.021118,188.459320 
	C369.124359,194.528305 369.129822,200.138748 369.170959,206.134155 
	C371.568817,208.711060 373.862427,209.021408 376.491638,206.203522 
	C377.708557,205.225525 379.035980,204.375290 379.144440,203.390762 
	C379.484009,200.309540 379.363617,197.177658 379.685486,194.080154 
	C380.558990,193.753525 381.168457,193.412140 382.010376,193.339005 
	C384.162598,196.137848 386.195007,198.591766 387.979767,201.214249 
	C392.358124,207.647659 394.601501,208.460846 402.951965,206.089188 
	C399.538025,201.171005 396.187683,196.344406 392.874329,191.026031 
	C392.891327,189.549194 392.871277,188.564102 393.097961,187.365479 
	C395.985962,184.347214 398.627258,181.542526 401.268555,178.737823 
	C410.229309,179.096939 416.430969,173.502197 423.688873,168.393326 
	C423.801025,170.306564 423.838165,172.003693 424.012604,173.686569 
	C424.341827,176.863159 423.080536,178.140976 419.790863,178.082108 
	C417.284515,178.037277 414.764587,178.749863 411.965393,179.833954 
	C411.785797,182.774277 411.891449,185.006134 412.134888,187.597748 
	C413.150177,188.301056 414.051147,188.988800 414.901276,188.930832 
	C419.553253,188.613632 424.028778,188.455795 425.818237,194.560806 
	C425.845093,196.549850 425.780762,198.148010 425.716431,199.746155 
z"/>
<path fill="#F8F8F8" opacity="1.000000" stroke="none" 
	d="
M369.135284,205.749191 
	C369.129822,200.138748 369.124359,194.528305 369.120728,188.002380 
	C369.055908,182.391449 368.989227,177.696014 368.922546,173.000565 
	C368.922546,169.239609 368.922546,165.478653 368.922546,161.698090 
	C377.011536,161.698090 384.595306,161.698090 392.589935,161.808212 
	C399.536072,164.379242 402.369110,169.867676 401.261719,178.323486 
	C398.627258,181.542526 395.985962,184.347214 392.702759,187.411880 
	C389.137817,189.596237 392.278290,190.296432 392.837311,191.517807 
	C396.187683,196.344406 399.538025,201.171005 402.951965,206.089188 
	C394.601501,208.460846 392.358124,207.647659 387.979767,201.214249 
	C386.195007,198.591766 384.162598,196.137848 381.950684,193.005722 
	C381.097717,191.405212 380.536926,190.406235 379.976166,189.407242 
	C379.685638,189.526505 379.395081,189.645767 379.104553,189.765030 
	C379.210175,191.198486 379.315796,192.631943 379.421448,194.065399 
	C379.363617,197.177658 379.484009,200.309540 379.144440,203.390762 
	C379.035980,204.375290 377.708557,205.225525 376.068054,206.100647 
	C373.176575,205.959106 371.155945,205.854156 369.135284,205.749191 
M391.163788,173.720947 
	C388.765533,167.786316 383.814026,170.479202 379.446472,169.870728 
	C379.358398,171.591522 379.256439,172.879395 379.234955,174.168579 
	C379.202606,176.109406 379.226501,178.051178 379.226501,179.903427 
	C387.695557,181.500687 390.140442,180.353165 391.163788,173.720947 
z"/>
<path fill="#F8F8F8" opacity="1.000000" stroke="none" 
	d="
M411.997131,187.237976 
	C411.891449,185.006134 411.785797,182.774277 411.837189,180.203278 
	C416.457520,179.864120 420.920807,179.864120 425.766724,179.864120 
	C425.766724,175.078735 425.766724,170.638306 425.766724,165.903107 
	C428.418152,165.903107 430.682190,165.903107 433.725403,165.903107 
	C433.725403,168.954422 433.725403,172.039749 433.732666,175.889252 
	C433.808838,177.102966 433.877747,177.552521 433.946655,178.002075 
	C434.742188,178.639130 435.507843,179.776917 436.338379,179.826431 
	C439.900085,180.038818 443.480927,179.930862 447.516968,179.973160 
	C447.979156,182.155151 447.979156,184.303619 447.979156,186.986542 
	C443.484375,186.986542 438.952911,186.986542 433.988525,186.986542 
	C433.988525,191.879471 433.988525,196.269287 433.988525,201.880707 
	C430.901154,201.323074 428.414581,200.873962 425.822205,200.085510 
	C425.780762,198.148010 425.845093,196.549850 425.912659,194.177612 
	C425.915894,191.485855 425.915894,189.568192 425.915894,187.237976 
	C421.036377,187.237976 416.516754,187.237976 411.997131,187.237976 
z"/>
<path fill="#161123" opacity="1.000000" stroke="none" 
	d="
M434.234131,177.955688 
	C433.877747,177.552521 433.808838,177.102966 433.849304,176.325882 
	C434.454071,176.318909 434.949463,176.639465 435.444855,176.960052 
	C435.137115,177.276459 434.829376,177.592865 434.234131,177.955688 
z"/>
<path fill="#F8F8F8" opacity="1.000000" stroke="none" 
	d="
M273.857574,167.771820 
	C271.816132,170.031906 269.522278,172.064758 267.469391,173.884079 
	C264.985077,171.924240 263.460846,170.721817 261.338104,169.357941 
	C260.103577,169.299957 259.467590,169.403442 258.831573,169.506927 
	C254.818130,171.959213 254.531662,174.504593 258.286133,176.731415 
	C261.264709,178.498047 264.614410,179.630753 267.635864,181.334808 
	C275.332825,185.675781 277.184784,192.194290 273.066284,200.520844 
	C262.992035,210.897339 251.183029,208.945618 242.909775,195.595093 
	C247.336258,193.990219 251.346024,190.912903 255.607422,196.391495 
	C257.963531,199.420532 261.667145,198.700958 263.624023,195.770477 
	C265.401733,193.108231 263.962006,190.649338 260.879395,189.206131 
	C257.404419,187.579224 253.882797,185.903000 250.772400,183.697052 
	C248.584229,182.145142 247.049133,179.672394 245.048004,177.307587 
	C245.008987,176.247543 245.144348,175.490753 245.242432,174.037964 
	C245.147934,172.894226 245.090744,172.446457 245.033554,171.998688 
	C246.526627,165.747910 250.167221,161.666946 256.722107,160.717880 
	C263.640259,159.716187 269.597656,161.263840 273.857574,167.771820 
z"/>
<path fill="#F8F8F8" opacity="1.000000" stroke="none" 
	d="
M280.993500,170.324280 
	C280.528229,170.252563 280.062927,170.180847 279.244446,170.070236 
	C278.891266,167.223007 278.891266,164.414673 278.891266,160.947632 
	C288.310394,160.947632 297.691986,160.947632 307.537720,160.877319 
	C308.415710,163.640961 308.829559,166.474899 309.331360,169.911026 
	C305.656403,169.911026 302.602631,169.911026 298.972168,169.911026 
	C298.972168,173.664993 298.972168,176.912949 299.065430,180.545898 
	C299.018127,189.180801 298.877563,197.430725 297.941833,205.870850 
	C294.422241,206.063232 291.697784,206.065430 288.973358,206.067627 
	C288.834137,197.018448 288.694946,187.969254 288.557251,178.053833 
	C288.558746,174.972839 288.558746,172.758072 288.558746,170.324280 
	C285.725067,170.324280 283.359283,170.324280 280.993500,170.324280 
z"/>
<path fill="#161123" opacity="1.000000" stroke="none" 
	d="
M244.747986,172.045883 
	C245.090744,172.446457 245.147934,172.894226 245.116119,173.671509 
	C244.534546,173.681595 244.041992,173.362137 243.549438,173.042694 
	C243.853760,172.726151 244.158081,172.409607 244.747986,172.045883 
z"/>
<path fill="#1A1529" opacity="1.000000" stroke="none" 
	d="
M368.565796,173.009155 
	C368.989227,177.696014 369.055908,182.391449 369.022949,187.543823 
	C362.517059,189.633987 356.110779,191.267227 349.059143,192.693115 
	C348.378784,190.907349 348.343811,189.328918 348.308838,187.750488 
	C353.716644,183.751862 359.124451,179.753220 364.697693,175.484039 
	C365.978424,174.481583 367.093719,173.749649 368.565796,173.009155 
z"/>
<path fill="#F7432D" opacity="1.000000" stroke="none" 
	d="
M348.214111,187.365784 
	C348.343811,189.328918 348.378784,190.907349 348.647339,192.756958 
	C350.497375,198.696060 352.113861,204.363968 353.828583,210.376389 
	C347.857544,206.068771 342.155487,201.955215 336.231934,197.220215 
	C334.647034,194.630280 333.283630,192.661789 332.085876,190.419373 
	C335.085632,187.600952 337.919769,185.056442 340.753906,182.511932 
	C340.561676,182.171951 340.369415,181.831970 340.177185,181.491974 
	C335.493927,183.383575 330.810638,185.275177 326.066956,186.813110 
	C324.788727,184.912750 323.511780,183.408340 322.367859,181.808807 
	C320.878937,179.726837 319.495605,177.569336 318.066833,175.444336 
	C320.031158,175.369080 322.032349,175.018997 323.952179,175.276138 
	C327.865784,175.800323 329.347076,174.019363 329.633789,170.184280 
	C332.992371,172.172577 336.278015,174.074875 338.946625,176.623276 
	C342.270325,179.797211 345.084900,183.504242 348.214111,187.365784 
z"/>
<path fill="#E8244B" opacity="1.000000" stroke="none" 
	d="
M317.613983,175.344696 
	C319.495605,177.569336 320.878937,179.726837 322.367859,181.808807 
	C323.511780,183.408340 324.788727,184.912750 325.897583,187.056458 
	C325.359070,188.050308 324.929565,188.447144 324.500061,188.843994 
	C322.963196,187.920731 321.426331,186.997467 319.602783,185.977951 
	C315.040771,182.630692 310.765381,179.379700 305.327972,175.245071 
	C310.144989,175.245071 313.653076,175.245071 317.613983,175.344696 
z"/>
<path fill="#E8244B" opacity="1.000000" stroke="none" 
	d="
M331.920227,190.693298 
	C333.283630,192.661789 334.647034,194.630280 336.017670,196.991913 
	C329.988586,201.457306 323.952301,205.529602 317.144653,210.122253 
	C317.738190,201.035522 325.261780,197.804932 330.037750,191.992218 
	C330.951813,191.292007 331.436005,190.992645 331.920227,190.693298 
z"/>
<path fill="#1A1529" opacity="1.000000" stroke="none" 
	d="
M280.899719,170.635818 
	C283.359283,170.324280 285.725067,170.324280 288.558746,170.324280 
	C288.558746,172.758072 288.558746,174.972839 288.418701,177.606384 
	C286.209198,177.686310 283.988464,177.710159 282.105408,176.924561 
	C279.202179,175.713364 278.065674,173.627319 280.899719,170.635818 
z"/>
<path fill="#1B152B" opacity="1.000000" stroke="none" 
	d="
M332.085876,190.419373 
	C331.436005,190.992645 330.951813,191.292007 330.202179,191.696259 
	C328.388733,190.842163 326.840698,189.883163 324.896362,188.884064 
	C324.929565,188.447144 325.359070,188.050308 325.957977,187.410126 
	C330.810638,185.275177 335.493927,183.383575 340.177185,181.491974 
	C340.369415,181.831970 340.561676,182.171951 340.753906,182.511932 
	C337.919769,185.056442 335.085632,187.600952 332.085876,190.419373 
z"/>
<path fill="#1A1529" opacity="1.000000" stroke="none" 
	d="
M412.134888,187.597748 
	C416.516754,187.237976 421.036377,187.237976 425.915894,187.237976 
	C425.915894,189.568192 425.915894,191.485855 425.821472,193.786713 
	C424.028778,188.455795 419.553253,188.613632 414.901276,188.930832 
	C414.051147,188.988800 413.150177,188.301056 412.134888,187.597748 
z"/>
<path fill="#38314A" opacity="1.000000" stroke="none" 
	d="
M289.066101,206.447220 
	C291.697784,206.065430 294.422241,206.063232 297.593445,206.144760 
	C295.276459,209.348267 292.236145,208.362015 289.066101,206.447220 
z"/>
<path fill="#38314A" opacity="1.000000" stroke="none" 
	d="
M369.170959,206.134155 
	C371.155945,205.854156 373.176575,205.959106 375.620819,206.166931 
	C373.862427,209.021408 371.568817,208.711060 369.170959,206.134155 
z"/>
<path fill="#38314A" opacity="1.000000" stroke="none" 
	d="
M379.685486,194.080154 
	C379.315796,192.631943 379.210175,191.198486 379.104553,189.765030 
	C379.395081,189.645767 379.685638,189.526505 379.976166,189.407242 
	C380.536926,190.406235 381.097717,191.405212 381.718201,192.737488 
	C381.168457,193.412140 380.558990,193.753525 379.685486,194.080154 
z"/>
<path fill="#1A1529" opacity="1.000000" stroke="none" 
	d="
M392.874329,191.026031 
	C392.278290,190.296432 389.137817,189.596237 392.456055,187.625427 
	C392.871277,188.564102 392.891327,189.549194 392.874329,191.026031 
z"/>
<path fill="#1A1529" opacity="1.000000" stroke="none" 
	d="
M259.005157,169.783112 
	C259.467590,169.403442 260.103577,169.299957 260.955017,169.325455 
	C260.506561,169.656052 259.842651,169.857666 259.005157,169.783112 
z"/>
<path fill="#211A35" opacity="1.000000" stroke="none" 
	d="
M391.215454,174.131104 
	C390.140442,180.353165 387.695557,181.500687 379.226501,179.903427 
	C379.226501,178.051178 379.202606,176.109406 379.234955,174.168579 
	C379.256439,172.879395 379.358398,171.591522 379.446472,169.870728 
	C383.814026,170.479202 388.765533,167.786316 391.215454,174.131104 
z"/>
</svg>